<svg xmlns="http://www.w3.org/2000/svg" width="65.14" height="65.14" viewBox="0 0 65.14 65.14"><title>shelly</title><path d="M56,10c-.75,0-1.48-.17-2.22-.21a91.89,91.89,0,0,0-9.47,0,28.8,28.8,0,0,0-9.74,2,10.81,10.81,0,0,0-5.38,4.41,10.19,10.19,0,0,0-1.26,6.43A36.05,36.05,0,0,0,30.63,32,34,34,0,0,1,33,40c.56,4.16-.86,7.61-4.77,9.78a16.58,16.58,0,0,1-8.54,1.89,18.34,18.34,0,0,1-9.39-2.52,5.63,5.63,0,0,1-2.87-3.73A4.91,4.91,0,0,1,9.83,40,12.34,12.34,0,0,1,15,38.34a44.41,44.41,0,0,1,4.47-.1,9.28,9.28,0,0,0,6.13-2.09,6.11,6.11,0,0,0,1.78-2.58c.12-.32.11-.46-.3-.46-5.89,0-11.77,0-17.66.07a25.37,25.37,0,0,0-9,1.67.81.81,0,0,1-.45.07V30c.16-.08.11-.24.12-.37a30.74,30.74,0,0,1,2.33-9.46Q9.91,3.3,28.16.29A4,4,0,0,0,29.7,0h5.42A7.46,7.46,0,0,0,37,.29,32.23,32.23,0,0,1,55.1,9.06,3,3,0,0,1,56,10Z" fill="#4495cf"/><path d="M30.22,65.14a1.77,1.77,0,0,0-.94-.19,32.13,32.13,0,0,1-17.34-7.2c-.63-.51-1.22-1.08-1.83-1.62a.89.89,0,0,1-.1-.19c.85.12,1.65.25,2.45.35a55.42,55.42,0,0,0,12.21.21A37.77,37.77,0,0,0,36,53.77a18.53,18.53,0,0,0,7.79-5.57,12.6,12.6,0,0,0,2.51-9.36A42.35,42.35,0,0,0,43.16,28a50.62,50.62,0,0,1-2.35-7.11,5.56,5.56,0,0,1-.12-2.17,3.62,3.62,0,0,1,3.41-3.17,21,21,0,0,1,2.76-.1c1.81,0,3.61,0,5.42,0,.48,0,.47.12.28.49-1.13,2.23-2.25,4.46-3.37,6.7-.25.51-.25.51.32.51,3.51,0,7,0,10.52,0a1.92,1.92,0,0,0,1.29-.44,10.12,10.12,0,0,0,1.38-1.26c.23-.27.36-.33.5.07a33.53,33.53,0,0,1,1.72,7.38A2.58,2.58,0,0,0,65.14,30v5.11c-.14.07-.11.2-.12.32-.11,1.07-.24,2.14-.45,3.19A32.11,32.11,0,0,1,54.06,57a32,32,0,0,1-18.21,8,2.13,2.13,0,0,0-1,.18Z" fill="#4495cf"/><path d="M56,10h0s0,0,0,0l0,0Z" fill="#4495cf"/></svg>