<svg xmlns="http://www.w3.org/2000/svg" xmlns:xlink="http://www.w3.org/1999/xlink" width="192" height="192" viewBox="0 0 192 192"><defs><clipPath id="a"><circle cx="96.28" cy="96.13" r="95.36" fill="none"/></clipPath></defs><title>switchbot</title><g clip-path="url(#a)"><path d="M82,0h27c.41,1.32,1.58.89,2.48,1.07,37.8,7.53,63.38,29.18,76,65.8a10.64,10.64,0,0,0-1.92,2.23C180.44,80.2,172,87.73,160.77,92.28c-1.08.44-2.3,1-2.29,2.32,0,1.66,1.42,2,2.71,2.43a46.47,46.47,0,0,1,18.62,11c3.48,3.36,5,8.21,9.14,10.93a20,20,0,0,1-.46,3.42c-9.49,30.52-29,51.77-58.74,63.63-7.06,2.81-14.57,3.74-21.75,6H82c-.52-1.54-1.93-1-3-1.21-38.12-8.38-63.39-30.94-75.5-68.16C2.18,118.46,2.29,113.9,0,110V82c1.54-.52,1-1.93,1.21-3,8.36-38.13,31-63.38,68.15-75.51C73.53,2.17,78.08,2.22,82,0ZM57.79,122c.6,7.87,1.32,15.12,1.66,22.39.18,3.88,1.71,4.64,5.64,5.68a52.42,52.42,0,0,0,8.33,1.39c13.38,1.35,26.73,3,39.9-1.83,18.78-6.88,29.1-30.36,13-47.49-2.85-3-5.88-5.89-9-8.62-6.14-5.35-13.1-9.79-18.37-16.1-4.4-5.27-3.3-10.58,3.26-12.35a34.65,34.65,0,0,1,17.41-.67,102.88,102.88,0,0,1,10.5,2.84c3,1.11,3.94.48,3.61-2.71-.67-6.45-1.29-12.91-1.63-19.39-.12-2.34-1-3.19-3.15-3.47-5.44-.69-10.83-1.91-16.29-2.23-12.49-.74-24.92-1-36.37,5.64a28.51,28.51,0,0,0-8.55,41.32c7.42,10,17.79,16.75,26.52,25.29,3.11,3,7,5.77,5.55,10.73-1.38,4.78-5.89,5.48-10.09,5.78a54.08,54.08,0,0,1-25.29-3.9C62.46,123.53,60.43,123,57.79,122Z" fill="#d1393a"/><path d="M192,110c-2.29,2.57-.92,6.37-3.05,9-4.12-2.71-5.66-7.56-9.14-10.93a46.47,46.47,0,0,0-18.62-11c-1.3-.41-2.71-.77-2.71-2.43,0-1.37,1.21-1.88,2.29-2.32,11.24-4.56,19.67-12.08,24.79-23.2a10.64,10.64,0,0,1,1.92-2.23c2.47,5.11,2.21,11,4.52,16.14Z" fill="#da5253"/></g></svg>